<?xml version="1.0"?>
<svg xmlns="http://www.w3.org/2000/svg" xmlns:xlink="http://www.w3.org/1999/xlink" version="1.1" id="Layer_1" x="0px" y="0px" viewBox="0 0 329.954 329.954" style="enable-background:new 0 0 329.954 329.954;" xml:space="preserve" width="512px" height="512px" class=""><g><path id="XMLID_224_" d="M325.56,73.335l-42.427-42.426c-5.857-5.857-15.355-5.858-21.213,0L110.461,182.37l-42.428-42.428  c-2.813-2.813-6.628-4.394-10.606-4.394c-3.978,0-7.794,1.581-10.607,4.394L4.393,182.369c-5.857,5.858-5.857,15.355,0,21.213  l95.457,95.463c2.813,2.813,6.629,4.393,10.607,4.393c3.978,0,7.794-1.581,10.606-4.393L325.56,94.548  c2.813-2.813,4.394-6.628,4.394-10.606C329.954,79.963,328.373,76.148,325.56,73.335z M110.458,267.225l-74.245-74.249  l21.214-21.214l42.428,42.428c2.813,2.813,6.628,4.394,10.606,4.394c3.979,0,7.793-1.581,10.607-4.394L272.527,62.728l21.213,21.213  L110.458,267.225z" data-original="#000000" class="active-path" data-old_color="#439E0F" fill="#5EBC20"/></g> </svg>
