<?xml version="1.0"?>
<svg xmlns="http://www.w3.org/2000/svg" xmlns:xlink="http://www.w3.org/1999/xlink" version="1.1" id="Layer_1" x="0px" y="0px" viewBox="0 0 284.559 284.559" style="enable-background:new 0 0 284.559 284.559;" xml:space="preserve" width="512px" height="512px" class=""><g><path id="XMLID_227_" d="M205.919,142.279l74.246-74.247c2.814-2.813,4.394-6.628,4.394-10.606c0-3.979-1.581-7.793-4.394-10.607  L237.738,4.393c-5.857-5.858-15.355-5.858-21.213,0l-74.246,74.246L68.033,4.394c-5.857-5.858-15.355-5.858-21.213,0L4.394,46.819  C1.581,49.632,0,53.447,0,57.426c0,3.978,1.58,7.793,4.394,10.606l74.246,74.247L4.394,216.526c-5.858,5.858-5.858,15.355,0,21.213  l42.427,42.427c2.813,2.813,6.628,4.394,10.606,4.394c3.978,0,7.793-1.581,10.606-4.394l74.246-74.246l74.246,74.246  c2.813,2.813,6.628,4.394,10.606,4.394c3.978,0,7.794-1.581,10.607-4.394l42.427-42.427c5.858-5.858,5.858-15.355,0-21.213  L205.919,142.279z M227.132,248.345l-74.246-74.247c-2.813-2.813-6.628-4.393-10.606-4.393s-7.794,1.58-10.606,4.393l-74.246,74.247  l-21.213-21.213l74.246-74.246c5.858-5.857,5.858-15.355,0-21.213L36.214,57.426l21.213-21.213l74.247,74.246  c5.857,5.858,15.355,5.858,21.213,0l74.246-74.246l21.213,21.213L174.1,131.673c-5.858,5.858-5.858,15.355,0,21.213l74.246,74.246  L227.132,248.345z" data-original="#000000" class="active-path" data-old_color="#FF0014" fill="#D61E2D"/></g> </svg>
